<svg width="1024" height="1024" viewBox="0 0 1024 1024" fill="none" xmlns="http://www.w3.org/2000/svg">
<path d="M960 95.775L703.776 95.776V32C703.776 14.32 689.456 0 671.776 0C654.096 0 639.776 14.32 639.776 32V95.76H383.776V32C383.776 14.32 369.456 0 351.776 0C334.096 0 319.776 14.32 319.776 32V95.76H64C28.656 95.76 0 124.416 0 159.76V959.76C0 995.103 28.656 1023.76 64 1023.76H960C995.344 1023.76 1024 995.103 1024 959.76V159.76C1024 124.431 995.344 95.775 960 95.775V95.775ZM960 959.76H64V159.76H319.776V192C319.776 209.679 334.096 224 351.776 224C369.456 224 383.776 209.679 383.776 192V159.776H639.776V192.016C639.776 209.696 654.096 224.016 671.776 224.016C689.456 224.016 703.776 209.696 703.776 192.016V159.776H960V959.76ZM736 511.775H800C817.664 511.775 832 497.439 832 479.775V415.775C832 398.111 817.664 383.775 800 383.775H736C718.336 383.775 704 398.111 704 415.775V479.775C704 497.439 718.336 511.775 736 511.775ZM736 767.759H800C817.664 767.759 832 753.439 832 735.759V671.759C832 654.095 817.664 639.759 800 639.759H736C718.336 639.759 704 654.095 704 671.759V735.759C704 753.455 718.336 767.759 736 767.759ZM544 639.759H480C462.336 639.759 448 654.095 448 671.759V735.759C448 753.439 462.336 767.759 480 767.759H544C561.664 767.759 576 753.439 576 735.759V671.759C576 654.111 561.664 639.759 544 639.759ZM544 383.775H480C462.336 383.775 448 398.111 448 415.775V479.775C448 497.439 462.336 511.775 480 511.775H544C561.664 511.775 576 497.439 576 479.775V415.775C576 398.095 561.664 383.775 544 383.775ZM288 383.775H224C206.336 383.775 192 398.111 192 415.775V479.775C192 497.439 206.336 511.775 224 511.775H288C305.664 511.775 320 497.439 320 479.775V415.775C320 398.095 305.664 383.775 288 383.775ZM288 639.759H224C206.336 639.759 192 654.095 192 671.759V735.759C192 753.439 206.336 767.759 224 767.759H288C305.664 767.759 320 753.439 320 735.759V671.759C320 654.111 305.664 639.759 288 639.759Z" fill="white"/>
</svg>
