<svg width="50" height="50" viewBox="0 0 50 50" fill="none" xmlns="http://www.w3.org/2000/svg">
<rect width="50" height="50" rx="9" fill="#E0DCDC"/>
<path d="M32.2 13.7C29.5531 13.7 27.4 15.8195 27.4 18.425C27.4 20.5229 28.8057 22.2846 30.7326 22.9002C30.5323 24.1584 29.9824 25.1952 29.0457 26.0363C26.3769 28.4298 21.4658 28.6486 19.1714 28.6108V20.23C21.1463 19.6441 22.6 17.858 22.6 15.725C22.6 13.1195 20.4469 11 17.8 11C15.1531 11 13 13.1195 13 15.725C13 17.858 14.4537 19.6441 16.4286 20.23V28.7701C14.4537 29.356 13 31.142 13 33.275C13 35.8805 15.1531 38 17.8 38C20.4469 38 22.6 35.8805 22.6 33.275C22.6 32.5312 22.408 31.8373 22.0967 31.2109C24.9218 30.9598 28.4834 30.1889 30.8862 28.0384C32.3906 26.6924 33.2601 24.9819 33.4974 22.9515C35.512 22.3913 37 20.585 37 18.425C37 15.8195 34.8469 13.7 32.2 13.7ZM15.7429 15.725C15.7429 14.6086 16.6658 13.7 17.8 13.7C18.9342 13.7 19.8571 14.6086 19.8571 15.725C19.8571 16.8415 18.9342 17.75 17.8 17.75C16.6658 17.75 15.7429 16.8415 15.7429 15.725ZM17.8 35.3C16.6658 35.3 15.7429 34.3915 15.7429 33.275C15.7435 32.7426 15.9572 32.2319 16.3376 31.8534C16.718 31.4749 17.2345 31.2591 17.7753 31.2527L17.9536 31.2662C18.2227 31.2761 18.4871 31.3381 18.7318 31.4487C18.9766 31.5592 19.1968 31.7161 19.3799 31.9104C19.563 32.1047 19.7055 32.3326 19.7991 32.5811C19.8928 32.8296 19.9358 33.0938 19.9257 33.3587C19.9156 33.6236 19.8526 33.8839 19.7404 34.1248C19.6281 34.3657 19.4687 34.5825 19.2713 34.7627C19.0739 34.943 18.8424 35.0832 18.5899 35.1754C18.3375 35.2676 18.0691 35.3099 17.8 35.3ZM32.2 20.45C31.0658 20.45 30.1429 19.5415 30.1429 18.425C30.1429 17.3086 31.0658 16.4 32.2 16.4C33.3342 16.4 34.2571 17.3086 34.2571 18.425C34.2571 19.5415 33.3342 20.45 32.2 20.45Z" fill="#15C485"/>
</svg>
