<svg width="24" height="24" viewBox="0 0 24 24" fill="none" xmlns="http://www.w3.org/2000/svg">
<path d="M20.25 1.999C21.216 1.999 22 2.783 22 3.749V6.792C21.9999 7.29437 21.8622 7.78711 21.6018 8.21674C21.3414 8.64636 20.9683 8.99645 20.523 9.229L14.223 12.519C15.2343 13.0196 16.0466 13.8477 16.5276 14.8684C17.0087 15.8892 17.1303 17.0427 16.8727 18.1414C16.6151 19.2401 15.9935 20.2193 15.1088 20.9198C14.2241 21.6204 13.1285 22.0011 12 22C10.8719 22.0006 9.77675 21.6197 8.8925 20.9192C8.00825 20.2187 7.38686 19.2398 7.12932 18.1415C6.87177 17.0432 6.9932 15.8901 7.47388 14.8695C7.95456 13.849 8.76623 13.0209 9.777 12.52L3.477 9.23C3.03155 8.99737 2.65835 8.64712 2.39796 8.21731C2.13757 7.78749 1.99993 7.29454 2 6.792V3.749C2 2.783 2.784 1.999 3.75 1.999H20.25ZM12 13.499C11.0717 13.499 10.1815 13.8677 9.52513 14.5241C8.86875 15.1805 8.5 16.0707 8.5 16.999C8.5 17.9273 8.86875 18.8175 9.52513 19.4739C10.1815 20.1303 11.0717 20.499 12 20.499C12.9283 20.499 13.8185 20.1303 14.4749 19.4739C15.1313 18.8175 15.5 17.9273 15.5 16.999C15.5 16.0707 15.1313 15.1805 14.4749 14.5241C13.8185 13.8677 12.9283 13.499 12 13.499V13.499ZM16 3.499H7.997V9.897L11.884 11.927C11.9198 11.9457 11.9596 11.9555 12 11.9555C12.0404 11.9555 12.0802 11.9457 12.116 11.927L16 9.899V3.499V3.499Z" fill="black"/>
</svg>
