<svg width="36" height="36" viewBox="0 0 36 36" fill="none" xmlns="http://www.w3.org/2000/svg">
<path d="M18 17C19.4759 17.0019 20.9192 16.5661 22.1473 15.7476C23.3754 14.9291 24.3331 13.7647 24.8993 12.4017C25.4654 11.0387 25.6146 9.53848 25.3279 8.09072C25.0411 6.64296 24.3314 5.31278 23.2885 4.26848C22.2456 3.22418 20.9164 2.51269 19.469 2.22403C18.0217 1.93538 16.5212 2.08253 15.1575 2.64686C13.7938 3.21119 12.6281 4.16736 11.8079 5.39436C10.9878 6.62137 10.55 8.06408 10.55 9.53995C10.55 11.5167 11.3346 13.4127 12.7314 14.8114C14.1283 16.2102 16.0232 16.9973 18 17V17ZM18 4.06995C19.0807 4.06798 20.1377 4.38677 21.0372 4.98596C21.9366 5.58515 22.638 6.43779 23.0524 7.43588C23.4669 8.43397 23.5759 9.53262 23.3656 10.5927C23.1552 11.6528 22.635 12.6265 21.8708 13.3907C21.1066 14.1549 20.1328 14.6752 19.0727 14.8855C18.0127 15.0959 16.914 14.9869 15.9159 14.5724C14.9178 14.1579 14.0652 13.4565 13.466 12.5571C12.8668 11.6577 12.548 10.6007 12.55 9.51995C12.5526 8.07534 13.1277 6.69064 14.1492 5.66914C15.1707 4.64764 16.5554 4.0726 18 4.06995V4.06995Z" fill="#15C485"/>
<path d="M5.99999 31.89V25.77C7.54386 24.1497 9.40804 22.8683 11.474 22.0075C13.5399 21.1467 15.7623 20.7253 18 20.77C21.0626 20.7287 24.077 21.5351 26.71 23.1L28.06 21.59C25.0498 19.694 21.5574 18.7046 18 18.74C15.3972 18.6737 12.8118 19.1824 10.4282 20.2299C8.04456 21.2774 5.92137 22.8378 4.20999 24.8C4.07659 24.9718 4.00286 25.1825 3.99999 25.4V31.89C3.98654 32.4347 4.18943 32.9625 4.56427 33.358C4.93911 33.7534 5.45534 33.9843 5.99999 34H18.39L16.49 32L5.99999 31.89Z" fill="#15C485"/>
<path d="M30 31.8899V32H26.85L25.05 34H30C30.5376 33.9843 31.0478 33.759 31.4215 33.3722C31.7952 32.9854 32.0028 32.4678 32 31.93V26.2L30 28.43V31.8899Z" fill="#15C485"/>
<path d="M34.76 18.62C34.5623 18.444 34.3028 18.3536 34.0385 18.3686C33.7742 18.3835 33.5266 18.5027 33.35 18.7L21.73 31.7L16.53 26.11C16.4446 26.0102 16.3405 25.9282 16.2234 25.8686C16.1064 25.8091 15.9787 25.7732 15.8478 25.763C15.7169 25.7527 15.5852 25.7684 15.4603 25.8091C15.3354 25.8498 15.2198 25.9146 15.12 26C15.0222 26.0889 14.9431 26.1964 14.8871 26.3161C14.8311 26.4358 14.7994 26.5654 14.7938 26.6975C14.7883 26.8295 14.8089 26.9614 14.8546 27.0854C14.9003 27.2094 14.9701 27.3231 15.06 27.42L21.75 34.62L34.84 20C35.0069 19.8039 35.0917 19.551 35.0768 19.294C35.0619 19.0369 34.9484 18.7955 34.76 18.62V18.62Z" fill="#15C485"/>
</svg>
