<svg width="20" height="19" viewBox="0 0 20 19" fill="none" xmlns="http://www.w3.org/2000/svg">
<path d="M17 19H3C2.73478 19 2.48043 18.8947 2.29289 18.7071C2.10536 18.5196 2 18.2652 2 18V10H0L9.292 0.707013C9.38487 0.614037 9.49516 0.540278 9.61656 0.489954C9.73796 0.439629 9.86808 0.413727 9.9995 0.413727C10.1309 0.413727 10.261 0.439629 10.3824 0.489954C10.5038 0.540278 10.6141 0.614037 10.707 0.707013L20 10H18V18C18 18.2652 17.8946 18.5196 17.7071 18.7071C17.5196 18.8947 17.2652 19 17 19ZM8 12H12V17H16V8.82801L10 2.82801L4 8.82801V17H8V12Z" fill="#9E9E9E"/>
</svg>
