<svg width="50" height="50" viewBox="0 0 50 50" fill="none" xmlns="http://www.w3.org/2000/svg">
<circle cx="25" cy="25" r="25" fill="#FE8D92"/>
<path fill-rule="evenodd" clip-rule="evenodd" d="M23.3578 0.0530752C23.9007 0.0178742 24.4482 0 25 0C38.8071 0 50 11.1929 50 25C50 26.2084 49.9143 27.3968 49.7485 28.5594C47.3511 29.489 44.7367 30 42 30C30.402 30 21 20.8218 21 9.5C21 6.09301 21.8514 2.88014 23.3578 0.0530752Z" fill="#FFACB0"/>
<path d="M12 37V34.3333H35.4V37H12ZM35.4 19.6667V15.6667H32.8V19.6667H35.4ZM35.4 13C36.0896 13 36.7509 13.281 37.2385 13.781C37.7261 14.2811 38 14.9594 38 15.6667V19.6667C38 20.3739 37.7261 21.0522 37.2385 21.5523C36.7509 22.0524 36.0896 22.3333 35.4 22.3333H32.8V26.3333C32.8 27.7478 32.2521 29.1044 31.277 30.1046C30.3018 31.1048 28.9791 31.6667 27.6 31.6667H19.8C18.4209 31.6667 17.0982 31.1048 16.123 30.1046C15.1479 29.1044 14.6 27.7478 14.6 26.3333V13H35.4ZM30.2 15.6667H17.2V26.3333C17.2 27.0406 17.4739 27.7189 17.9615 28.219C18.4491 28.719 19.1104 29 19.8 29H27.6C28.2896 29 28.9509 28.719 29.4385 28.219C29.9261 27.7189 30.2 27.0406 30.2 26.3333V15.6667Z" fill="white"/>
</svg>
