<svg width="44" height="41" viewBox="0 0 44 41" fill="none" xmlns="http://www.w3.org/2000/svg">
<path d="M42 26H2V39H42V26Z" stroke="#5C98F4" stroke-width="4" stroke-linejoin="round"/>
<path d="M33.5 35C34.163 35 34.7989 34.7366 35.2678 34.2678C35.7366 33.7989 36 33.163 36 32.5C36 31.837 35.7366 31.2011 35.2678 30.7322C34.7989 30.2634 34.163 30 33.5 30C32.837 30 32.2011 30.2634 31.7322 30.7322C31.2634 31.2011 31 31.837 31 32.5C31 33.163 31.2634 33.7989 31.7322 34.2678C32.2011 34.7366 32.837 35 33.5 35Z" fill="#5C98F4"/>
<path d="M2 26L7.038 1.99902H37.02L42 25.999" stroke="#5C98F4" stroke-width="4" stroke-linejoin="round"/>
<path d="M8 32.5H25" stroke="#5C98F4" stroke-width="4" stroke-linecap="round"/>
</svg>
