<svg width="50" height="50" viewBox="0 0 50 50" fill="none" xmlns="http://www.w3.org/2000/svg">
<circle cx="25" cy="25" r="25" fill="#367EEC"/>
<path fill-rule="evenodd" clip-rule="evenodd" d="M23.3578 0.0530752C23.9007 0.0178742 24.4482 0 25 0C38.8071 0 50 11.1929 50 25C50 26.2084 49.9143 27.3968 49.7485 28.5594C47.3511 29.489 44.7367 30 42 30C30.402 30 21 20.8218 21 9.5C21 6.09301 21.8514 2.88014 23.3578 0.0530752Z" fill="#5C98F4"/>
<path d="M18.25 13C17.6533 13 17.081 13.2458 16.659 13.6834C16.2371 14.121 16 14.7145 16 15.3333V34C16 34.6188 16.2371 35.2123 16.659 35.6499C17.081 36.0875 17.6533 36.3333 18.25 36.3333H31.75C32.3467 36.3333 32.919 36.0875 33.341 35.6499C33.7629 35.2123 34 34.6188 34 34V20L27.25 13H18.25ZM18.25 15.3333H26.125V21.1667H31.75V34H18.25V15.3333ZM20.5 24.6667V27H29.5V24.6667H20.5ZM20.5 29.3333V31.6667H26.125V29.3333H20.5Z" fill="white"/>
</svg>
