<svg width="50" height="50" viewBox="0 0 50 50" fill="none" xmlns="http://www.w3.org/2000/svg">
<circle cx="25" cy="25" r="25" fill="#71B5FE"/>
<path fill-rule="evenodd" clip-rule="evenodd" d="M23.3578 0.0530752C23.9007 0.0178742 24.4482 0 25 0C38.8071 0 50 11.1929 50 25C50 26.2084 49.9143 27.3968 49.7485 28.5594C47.3511 29.489 44.7367 30 42 30C30.402 30 21 20.8218 21 9.5C21 6.09301 21.8514 2.88014 23.3578 0.0530752Z" fill="#92C6FF"/>
<path d="M35.4468 13.2102C35.2651 13.0917 35.0544 13.0206 34.8354 13.0039C34.6163 12.9871 34.3965 13.0253 34.1976 13.1146L12.7247 22.7985C12.5052 22.8976 12.3201 23.0552 12.1916 23.2525C12.0632 23.4497 11.9967 23.6782 12.0001 23.9108C12.0036 24.1433 12.0769 24.3699 12.2112 24.5636C12.3455 24.7572 12.5352 24.9097 12.7575 25.0028L19.5783 27.8631V36L26.9498 30.9547L32.9673 33.4774C33.1531 33.5553 33.3557 33.5893 33.5581 33.5764C33.7604 33.5634 33.9566 33.504 34.1299 33.4031C34.3032 33.3021 34.4486 33.1627 34.5539 32.9965C34.6591 32.8304 34.721 32.6424 34.7344 32.4484L35.9975 14.2912C36.0113 14.0807 35.9678 13.8704 35.8713 13.6809C35.7747 13.4914 35.6285 13.3292 35.4468 13.2102V13.2102ZM32.3319 30.5686L25.6766 27.7772L29.6832 20.2637L20.0217 25.4083L16.3182 23.8552L33.3336 16.1808L32.3319 30.5686V30.5686Z" fill="white"/>
</svg>
