<svg width="50" height="50" viewBox="0 0 50 50" fill="none" xmlns="http://www.w3.org/2000/svg">
<circle cx="25" cy="25" r="25" fill="#55D3C9"/>
<path fill-rule="evenodd" clip-rule="evenodd" d="M23.3578 0.0530752C23.9007 0.0178742 24.4482 0 25 0C38.8071 0 50 11.1929 50 25C50 26.2084 49.9143 27.3968 49.7485 28.5594C47.3511 29.489 44.7367 30 42 30C30.402 30 21 20.8218 21 9.5C21 6.09301 21.8514 2.88014 23.3578 0.0530752Z" fill="#60E9DE"/>
<rect x="13" y="13" width="10" height="10" fill="white"/>
<rect x="13" y="13" width="10" height="10" fill="white"/>
<rect x="13" y="13" width="10" height="10" fill="white"/>
<rect x="13" y="13" width="10" height="10" fill="white"/>
<rect x="13" y="13" width="10" height="10" fill="white"/>
<rect x="13" y="27" width="10" height="10" fill="white"/>
<rect x="13" y="27" width="10" height="10" fill="white"/>
<rect x="13" y="27" width="10" height="10" fill="white"/>
<rect x="13" y="27" width="10" height="10" fill="white"/>
<rect x="13" y="27" width="10" height="10" fill="white"/>
<rect x="27" y="13" width="10" height="10" fill="white"/>
<rect x="27" y="13" width="10" height="10" fill="white"/>
<rect x="27" y="13" width="10" height="10" fill="white"/>
<rect x="27" y="13" width="10" height="10" fill="white"/>
<rect x="27" y="13" width="10" height="10" fill="white"/>
<rect x="27" y="27" width="10" height="10" fill="white"/>
<rect x="27" y="27" width="10" height="10" fill="white"/>
<rect x="27" y="27" width="10" height="10" fill="white"/>
<rect x="27" y="27" width="10" height="10" fill="white"/>
<rect x="27" y="27" width="10" height="10" fill="white"/>
</svg>
