<svg width="881" height="881" viewBox="0 0 881 881" fill="none" xmlns="http://www.w3.org/2000/svg">
<path d="M792 447H434V89C434 84.6 430.4 81 426 81H400C347.47 80.914 295.441 91.2156 246.908 111.312C198.374 131.409 154.293 160.904 117.2 198.1C80.671 234.516 51.5651 277.683 31.5001 325.2C10.6206 374.484 -0.093411 427.476 0.000118832 481C-0.0858995 533.53 10.2157 585.559 30.3123 634.093C50.4089 682.626 79.9038 726.708 117.1 763.8C153.8 800.5 196.6 829.4 244.2 849.5C293.484 870.379 346.476 881.094 400 881C452.53 881.086 504.559 870.784 553.093 850.688C601.627 830.591 645.708 801.096 682.8 763.9C719.5 727.2 748.4 684.4 768.5 636.8C789.38 587.516 800.094 534.524 800 481V455C800 450.6 796.4 447 792 447ZM633.7 716.8C602.735 747.524 566.012 771.836 525.635 788.344C485.258 804.851 442.021 813.23 398.4 813C310.3 812.6 227.5 778.1 165.2 715.8C102.5 653.1 68.0001 569.7 68.0001 481C68.0001 392.3 102.5 308.9 165.2 246.2C219.8 191.6 290.1 158.3 366 150.7V515H730.3C722.6 591.3 689 662 633.7 716.8V716.8ZM880 391.4L877.4 363.2C868.9 271.1 828 184.2 762.2 118.6C696.355 52.8796 609.632 12.2065 517 3.59998L488.7 0.999977C484 0.599977 480 4.19998 480 8.89998V393C480 397.4 483.6 401 488 401L872 400C876.7 400 880.4 396 880 391.4ZM547.8 333.2V76.6C610.794 89.7847 668.602 120.982 714.2 166.4C759.9 212 791.2 270 804.2 332.5L547.8 333.2Z" fill="#F1DA06"/>
</svg>
