<svg width="50" height="50" viewBox="0 0 50 50" fill="none" xmlns="http://www.w3.org/2000/svg">
<circle cx="25" cy="25" r="25" fill="#A95BF0"/>
<path fill-rule="evenodd" clip-rule="evenodd" d="M23.3578 0.0530752C23.9007 0.0178742 24.4482 0 25 0C38.8071 0 50 11.1929 50 25C50 26.2084 49.9143 27.3968 49.7485 28.5594C47.3511 29.489 44.7367 30 42 30C30.402 30 21 20.8218 21 9.5C21 6.09301 21.8514 2.88014 23.3578 0.0530752Z" fill="#BA75F9"/>
<path d="M23.7 12V14.691C21.4121 14.9816 19.2857 16.0242 17.6549 17.6549C16.0242 19.2857 14.9816 21.4121 14.691 23.7H12V26.3H14.691C14.9816 28.5879 16.0242 30.7143 17.6549 32.3451C19.2857 33.9758 21.4121 35.0184 23.7 35.309V38H26.3V35.309C28.5879 35.0184 30.7143 33.9758 32.3451 32.3451C33.9758 30.7143 35.0184 28.5879 35.309 26.3H38V23.7H35.309C35.0184 21.4121 33.9758 19.2857 32.3451 17.6549C30.7143 16.0242 28.5879 14.9816 26.3 14.691V12H23.7ZM23.7 17.304V19.8H26.3V17.317C29.55 17.85 32.15 20.45 32.696 23.7H30.2V26.3H32.683C32.15 29.55 29.55 32.15 26.3 32.696V30.2H23.7V32.683C20.45 32.15 17.85 29.55 17.304 26.3H19.8V23.7H17.317C17.85 20.45 20.45 17.85 23.7 17.304ZM25 23.7C24.6552 23.7 24.3246 23.837 24.0808 24.0808C23.837 24.3246 23.7 24.6552 23.7 25C23.7 25.3448 23.837 25.6754 24.0808 25.9192C24.3246 26.163 24.6552 26.3 25 26.3C25.3448 26.3 25.6754 26.163 25.9192 25.9192C26.163 25.6754 26.3 25.3448 26.3 25C26.3 24.6552 26.163 24.3246 25.9192 24.0808C25.6754 23.837 25.3448 23.7 25 23.7Z" fill="white"/>
</svg>
