<svg width="50" height="50" viewBox="0 0 50 50" fill="none" xmlns="http://www.w3.org/2000/svg">
<rect width="50" height="50" rx="9" fill="#E0DCDC"/>
<path d="M20 13C20.9889 13 21.9556 13.2932 22.7779 13.8427C23.6001 14.3921 24.241 15.173 24.6194 16.0866C24.9978 17.0002 25.0969 18.0055 24.9039 18.9755C24.711 19.9454 24.2348 20.8363 23.5355 21.5355C22.8363 22.2348 21.9454 22.711 20.9755 22.9039C20.0055 23.0969 19.0002 22.9978 18.0866 22.6194C17.173 22.241 16.3921 21.6001 15.8427 20.7779C15.2932 19.9556 15 18.9889 15 18C15 16.6739 15.5268 15.4021 16.4645 14.4645C17.4021 13.5268 18.6739 13 20 13V13ZM20 11C18.6155 11 17.2622 11.4105 16.111 12.1797C14.9599 12.9489 14.0627 14.0421 13.5328 15.3212C13.003 16.6003 12.8644 18.0078 13.1345 19.3656C13.4046 20.7235 14.0713 21.9708 15.0503 22.9497C16.0292 23.9287 17.2765 24.5954 18.6344 24.8655C19.9922 25.1356 21.3997 24.997 22.6788 24.4672C23.9579 23.9373 25.0511 23.0401 25.8203 21.889C26.5895 20.7378 27 19.3845 27 18C27 16.1435 26.2625 14.363 24.9497 13.0503C23.637 11.7375 21.8565 11 20 11V11ZM30 39H28V34C28 32.6739 27.4732 31.4021 26.5355 30.4645C25.5979 29.5268 24.3261 29 23 29H17C15.6739 29 14.4021 29.5268 13.4645 30.4645C12.5268 31.4021 12 32.6739 12 34V39H10V34C10 32.1435 10.7375 30.363 12.0503 29.0503C13.363 27.7375 15.1435 27 17 27H23C24.8565 27 26.637 27.7375 27.9497 29.0503C29.2625 30.363 30 32.1435 30 34V39ZM30 13H40V15H30V13ZM30 18H40V20H30V18ZM30 23H37V25H30V23Z" fill="#696969"/>
</svg>
