<svg width="50" height="50" viewBox="0 0 50 50" fill="none" xmlns="http://www.w3.org/2000/svg">
<circle cx="25" cy="25" r="25" fill="#F15980"/>
<path fill-rule="evenodd" clip-rule="evenodd" d="M23.3578 0.0530752C23.9007 0.0178742 24.4482 0 25 0C38.8071 0 50 11.1929 50 25C50 26.2084 49.9143 27.3968 49.7485 28.5594C47.3511 29.489 44.7367 30 42 30C30.402 30 21 20.8218 21 9.5C21 6.09301 21.8514 2.88014 23.3578 0.0530752Z" fill="#F96C8F"/>
<path d="M21.2143 18.3929V17.7143C21.2143 16.9944 21.5605 16.304 22.1766 15.795C22.7928 15.286 23.6286 15 24.5 15C25.3714 15 26.2072 15.286 26.8234 15.795C27.4395 16.304 27.7857 16.9944 27.7857 17.7143V18.3929H21.2143ZM13 23.1429C19.0884 28.8904 29.9116 28.8904 36 23.1429H13ZM14.6429 19.0714H34.3571C34.7929 19.0714 35.2107 19.2144 35.5188 19.4689C35.8269 19.7234 36 20.0686 36 20.4286V32.6429C36 33.0028 35.8269 33.348 35.5188 33.6025C35.2107 33.857 34.7929 34 34.3571 34H14.6429C14.2071 34 13.7893 33.857 13.4812 33.6025C13.1731 33.348 13 33.0028 13 32.6429V20.4286C13 20.0686 13.1731 19.7234 13.4812 19.4689C13.7893 19.2144 14.2071 19.0714 14.6429 19.0714V19.0714Z" stroke="white"/>
</svg>
