<svg width="704" height="896" viewBox="0 0 704 896" fill="none" xmlns="http://www.w3.org/2000/svg">
<path d="M694.6 224.6L479.4 9.4C473.4 3.4 465.3 0 456.8 0H32C14.3 0 0 14.3 0 32V864C0 881.7 14.3 896 32 896H672C689.7 896 704 881.7 704 864V247.3C704 238.8 700.6 230.6 694.6 224.6ZM630.2 262H442V73.8L630.2 262ZM632 824H72V72H374V288C374 299.139 378.425 309.822 386.302 317.698C394.178 325.575 404.861 330 416 330H632V824ZM344 554H160C155.6 554 152 557.6 152 562V610C152 614.4 155.6 618 160 618H344C348.4 618 352 614.4 352 610V562C352 557.6 348.4 554 344 554ZM152 426V474C152 478.4 155.6 482 160 482H544C548.4 482 552 478.4 552 474V426C552 421.6 548.4 418 544 418H160C155.6 418 152 421.6 152 426Z" fill="#9E9E9E"/>
</svg>
