<svg width="452" height="480" viewBox="0 0 452 480" fill="none" xmlns="http://www.w3.org/2000/svg">
<path d="M184.077 0C154.383 0.0336137 125.915 11.8444 104.918 32.8412C83.9213 53.838 72.1105 82.3061 72.0769 112V191.68C72.087 205.064 75.4449 218.233 81.8449 229.988L109.3 280.322L36.4769 327.656C25.2851 334.901 16.0889 344.838 9.72988 356.556C3.37083 368.274 0.0519486 381.4 0.0769221 394.732V480H280.077V448H32.0769V394.732C32.062 386.733 34.0534 378.857 37.8688 371.826C41.6842 364.795 47.2019 358.833 53.9169 354.486L151.577 291.007L109.937 214.666C106.097 207.613 104.083 199.711 104.077 191.68V112C104.077 90.7827 112.505 70.4344 127.508 55.4315C142.511 40.4285 162.86 32 184.077 32C205.294 32 225.643 40.4285 240.645 55.4315C255.648 70.4344 264.077 90.7827 264.077 112V191.68C264.071 199.711 262.056 207.612 258.216 214.665L216.577 291.007L280.077 332.283V294.117L258.854 280.317L286.308 229.983C292.708 218.23 296.066 205.063 296.077 191.68V112C296.043 82.3061 284.233 53.838 263.236 32.8412C242.239 11.8444 213.771 0.0336137 184.077 0V0ZM451.391 339.314L428.763 316.686L380.077 365.372L331.391 316.686L308.763 339.314L357.449 388L308.763 436.686L331.391 459.314L380.077 410.628L428.763 459.314L451.391 436.686L402.705 388L451.391 339.314V339.314Z" fill="#EE5964"/>
</svg>
