<svg width="50" height="50" viewBox="0 0 50 50" fill="none" xmlns="http://www.w3.org/2000/svg">
<circle cx="25" cy="25" r="25" fill="#15C585"/>
<path fill-rule="evenodd" clip-rule="evenodd" d="M23.3578 0.0530752C23.9007 0.0178742 24.4482 0 25 0C38.8071 0 50 11.1929 50 25C50 26.2084 49.9143 27.3968 49.7485 28.5594C47.3511 29.489 44.7367 30 42 30C30.402 30 21 20.8218 21 9.5C21 6.09301 21.8514 2.88014 23.3578 0.0530752Z" fill="#14DA93"/>
<path d="M35.2769 25.3333L37 27.2133L28.9631 36L24.6923 31.3333L26.4154 29.4533L28.9631 32.2267L35.2769 25.3333V25.3333ZM22.8462 14C24.1518 14 25.404 14.5619 26.3273 15.5621C27.2506 16.5623 27.7692 17.9188 27.7692 19.3333C27.7692 20.7478 27.2506 22.1044 26.3273 23.1046C25.404 24.1048 24.1518 24.6667 22.8462 24.6667C21.5405 24.6667 20.2883 24.1048 19.365 23.1046C18.4418 22.1044 17.9231 20.7478 17.9231 19.3333C17.9231 17.9188 18.4418 16.5623 19.365 15.5621C20.2883 14.5619 21.5405 14 22.8462 14V14ZM22.8462 16.6667C22.1933 16.6667 21.5672 16.9476 21.1056 17.4477C20.644 17.9478 20.3846 18.6261 20.3846 19.3333C20.3846 20.0406 20.644 20.7189 21.1056 21.219C21.5672 21.719 22.1933 22 22.8462 22C23.499 22 24.1251 21.719 24.5867 21.219C25.0484 20.7189 25.3077 20.0406 25.3077 19.3333C25.3077 18.6261 25.0484 17.9478 24.5867 17.4477C24.1251 16.9476 23.499 16.6667 22.8462 16.6667V16.6667ZM22.8462 26C23.6831 26 24.6923 26.12 25.8123 26.3467L23.7569 28.5733L22.8462 28.5333C19.1908 28.5333 15.3385 30.48 15.3385 31.3333V32.8H22.9692L25.3077 35.3333H13V31.3333C13 27.7867 19.56 26 22.8462 26Z" fill="white"/>
</svg>
